<mxfile host="app.diagrams.net" agent="Mozilla/5.0 (Macintosh; Intel Mac OS X 10_15_7) AppleWebKit/537.36 (KHTML, like Gecko) Chrome/138.0.0.0 Safari/537.36" version="28.0.7">
  <diagram name="Full AWS Web App Architecture" id="1">
    <mxGraphModel dx="946" dy="533" grid="1" gridSize="10" guides="1" tooltips="1" connect="1" arrows="1" fold="1" page="1" pageScale="1" pageWidth="850" pageHeight="1100" math="0" shadow="0">
      <root>
        <mxCell id="0" />
        <mxCell id="1" parent="0" />
        <mxCell id="user" value="User / Internet" style="shape=ellipse;whiteSpace=wrap;html=1;" parent="1" vertex="1">
          <mxGeometry x="40" y="160" width="100" height="60" as="geometry" />
        </mxCell>
        <mxCell id="route53" value="Route 53" style="shape=mxgraph.aws4.route_53;whiteSpace=wrap;html=1;" parent="1" vertex="1">
          <mxGeometry x="200" y="160" width="100" height="60" as="geometry" />
        </mxCell>
        <mxCell id="cloudfront" value="CloudFront (CDN)" style="shape=mxgraph.aws4.cloudfront;whiteSpace=wrap;html=1;" parent="1" vertex="1">
          <mxGeometry x="350" y="160" width="100" height="60" as="geometry" />
        </mxCell>
        <mxCell id="elb" value="Application Load Balancer" style="shape=mxgraph.aws4.application_load_balancer;whiteSpace=wrap;html=1;" parent="1" vertex="1">
          <mxGeometry x="480" y="160" width="120" height="60" as="geometry" />
        </mxCell>
        <mxCell id="asg" value="Auto Scaling Group" style="shape=mxgraph.aws4.auto_scaling;whiteSpace=wrap;html=1;" parent="1" vertex="1">
          <mxGeometry x="640" y="80" width="140" height="60" as="geometry" />
        </mxCell>
        <mxCell id="ec2_1" value="EC2 Web Server 1" style="shape=mxgraph.aws4.ec2_instance;whiteSpace=wrap;html=1;" parent="1" vertex="1">
          <mxGeometry x="480" y="30" width="120" height="60" as="geometry" />
        </mxCell>
        <mxCell id="ec2_2" value="EC2 Web Server 2" style="shape=mxgraph.aws4.ec2_instance;whiteSpace=wrap;html=1;" parent="1" vertex="1">
          <mxGeometry x="780" y="160" width="120" height="60" as="geometry" />
        </mxCell>
        <mxCell id="rds" value="Amazon RDS" style="shape=mxgraph.aws4.rds;whiteSpace=wrap;html=1;" parent="1" vertex="1">
          <mxGeometry x="920" y="120" width="120" height="60" as="geometry" />
        </mxCell>
        <mxCell id="s3" value="Amazon S3 (static assets)" style="shape=mxgraph.aws4.s3;whiteSpace=wrap;html=1;" parent="1" vertex="1">
          <mxGeometry x="920" y="200" width="120" height="60" as="geometry" />
        </mxCell>
        <mxCell id="api" value="API Gateway" style="shape=mxgraph.aws4.api_gateway;whiteSpace=wrap;html=1;" parent="1" vertex="1">
          <mxGeometry x="480" y="260" width="120" height="60" as="geometry" />
        </mxCell>
        <mxCell id="lambda" value="AWS Lambda" style="shape=mxgraph.aws4.lambda;whiteSpace=wrap;html=1;" parent="1" vertex="1">
          <mxGeometry x="640" y="260" width="100" height="60" as="geometry" />
        </mxCell>
        <mxCell id="cw" value="CloudWatch Logs" style="shape=mxgraph.aws4.cloudwatch;whiteSpace=wrap;html=1;" parent="1" vertex="1">
          <mxGeometry x="810" y="260" width="100" height="60" as="geometry" />
        </mxCell>
        <mxCell id="MjQHbH9OoyniaDGvFLib-1" style="endArrow=block;" parent="1" source="user" target="route53" edge="1">
          <mxGeometry relative="1" as="geometry" />
        </mxCell>
        <mxCell id="MjQHbH9OoyniaDGvFLib-2" style="endArrow=block;" parent="1" source="route53" target="cloudfront" edge="1">
          <mxGeometry relative="1" as="geometry" />
        </mxCell>
        <mxCell id="MjQHbH9OoyniaDGvFLib-3" style="endArrow=block;" parent="1" source="cloudfront" target="elb" edge="1">
          <mxGeometry relative="1" as="geometry" />
        </mxCell>
        <mxCell id="MjQHbH9OoyniaDGvFLib-4" style="endArrow=block;" parent="1" source="elb" target="ec2_1" edge="1">
          <mxGeometry relative="1" as="geometry" />
        </mxCell>
        <mxCell id="MjQHbH9OoyniaDGvFLib-5" style="endArrow=block;" parent="1" source="elb" target="ec2_2" edge="1">
          <mxGeometry relative="1" as="geometry">
            <Array as="points" />
          </mxGeometry>
        </mxCell>
        <mxCell id="MjQHbH9OoyniaDGvFLib-6" style="endArrow=block;" parent="1" source="ec2_1" target="rds" edge="1">
          <mxGeometry relative="1" as="geometry">
            <Array as="points">
              <mxPoint x="700" y="60" />
              <mxPoint x="980" y="60" />
            </Array>
          </mxGeometry>
        </mxCell>
        <mxCell id="MjQHbH9OoyniaDGvFLib-7" style="endArrow=block;" parent="1" source="ec2_2" target="rds" edge="1">
          <mxGeometry relative="1" as="geometry" />
        </mxCell>
        <mxCell id="MjQHbH9OoyniaDGvFLib-8" style="endArrow=block;" parent="1" source="ec2_2" target="s3" edge="1">
          <mxGeometry relative="1" as="geometry" />
        </mxCell>
        <mxCell id="MjQHbH9OoyniaDGvFLib-9" style="endArrow=block;" parent="1" source="cloudfront" target="s3" edge="1">
          <mxGeometry relative="1" as="geometry">
            <Array as="points">
              <mxPoint x="400" y="370" />
              <mxPoint x="980" y="370" />
            </Array>
          </mxGeometry>
        </mxCell>
        <mxCell id="MjQHbH9OoyniaDGvFLib-10" style="endArrow=block;" parent="1" source="elb" target="api" edge="1">
          <mxGeometry relative="1" as="geometry" />
        </mxCell>
        <mxCell id="MjQHbH9OoyniaDGvFLib-11" style="endArrow=block;" parent="1" source="api" target="lambda" edge="1">
          <mxGeometry relative="1" as="geometry" />
        </mxCell>
        <mxCell id="MjQHbH9OoyniaDGvFLib-12" style="endArrow=block;" parent="1" source="lambda" target="cw" edge="1">
          <mxGeometry relative="1" as="geometry" />
        </mxCell>
      </root>
    </mxGraphModel>
  </diagram>
</mxfile>
